<svg width="25" height="25" viewBox="0 0 25 25" fill="none" xmlns="http://www.w3.org/2000/svg">
    <path d="M9.5045 20.2386C10.297 20.2386 12.5001 20.2386 12.5001 20.2386C12.5001 20.2386 14.7027 20.2386 15.4957 20.2386C16.2877 20.2386 16.6474 19.0861 16.1889 18.2715C15.8436 17.6577 15.2778 16.9617 14.3571 16.5664C13.8301 16.9354 13.1898 17.1523 12.5001 17.1523C11.8095 17.1523 11.1701 16.9354 10.643 16.5664C9.72193 16.9617 9.1565 17.6577 8.81085 18.2715C8.35279 19.0861 8.71202 20.2386 9.5045 20.2386Z"
          fill="#828282"/>
    <path d="M12.5 16.3803C13.8532 16.3803 14.9496 15.2844 14.9496 13.9312V13.3444C14.9496 11.9912 13.8533 10.8945 12.5 10.8945C11.1468 10.8945 10.0501 11.9912 10.0501 13.3444V13.9312C10.0501 15.2844 11.1468 16.3803 12.5 16.3803Z"
          fill="#828282"/>
    <path d="M19.7743 2.77734H16.0715V3.571C16.0715 5.10249 14.8252 6.34878 13.2937 6.34878H11.7064C10.1749 6.34878 8.92859 5.10249 8.92859 3.571V2.77734H5.22581C3.98337 2.77734 2.9762 3.78452 2.9762 5.0269V22.75C2.9762 23.9924 3.98337 24.9996 5.22581 24.9996H19.7742C21.0166 24.9996 22.0238 23.9924 22.0238 22.75V5.0269C22.0239 3.78452 21.0167 2.77734 19.7743 2.77734ZM19.6429 22.6186H5.35715V7.34082H19.6429V22.6186Z"
          fill="#828282"/>
    <path d="M11.7064 5.55557H13.2937C14.3877 5.55557 15.2778 4.66543 15.2778 3.57144V1.98413C15.2778 0.890137 14.3877 0 13.2937 0H11.7064C10.6124 0 9.72223 0.890137 9.72223 1.98413V3.57144C9.72223 4.66538 10.6124 5.55557 11.7064 5.55557ZM11.3095 1.98413C11.3095 1.76479 11.487 1.5873 11.7064 1.5873H13.2937C13.513 1.5873 13.6905 1.76479 13.6905 1.98413V2.77778C13.6905 2.99712 13.513 3.17461 13.2937 3.17461H11.7064C11.487 3.17461 11.3095 2.99712 11.3095 2.77778V1.98413Z"
          fill="#828282"/>
</svg>
