<svg width="25" height="25" viewBox="0 0 25 25" fill="none" xmlns="http://www.w3.org/2000/svg">
<path fill-rule="evenodd" clip-rule="evenodd" d="M18.2081 0C22.0802 0 25 3.48333 25 8.10256V16.9077C25 19.2718 24.2419 21.4077 22.864 22.9231C21.6279 24.2808 20.0244 25 18.2267 25H6.76977C4.97558 25 3.37326 24.2821 2.13605 22.9231C0.75814 21.4077 0 19.2718 0 16.9077V8.10256C0 3.48333 2.91977 0 6.79186 0H18.2081ZM18.2081 1.92308H6.79186C3.86744 1.92308 1.74419 4.5218 1.74419 8.10256V16.9077C1.74419 18.7577 2.32093 20.4103 3.36744 21.5603C4.26977 22.5538 5.44767 23.0769 6.77326 23.0769H18.2081C18.2105 23.0744 18.2198 23.0769 18.2267 23.0769C19.5535 23.0769 20.7302 22.5538 21.6326 21.5603C22.6802 20.4103 23.2558 18.7577 23.2558 16.9077V8.10256C23.2558 4.5218 21.1326 1.92308 18.2081 1.92308ZM20.0407 7.85744C20.3442 8.26897 20.2872 8.8741 19.914 9.21L14.7465 13.8408C14.093 14.4126 13.3116 14.6985 12.5314 14.6985C11.7535 14.6985 10.9779 14.4151 10.3291 13.8485L5.11395 9.21256C4.73837 8.87923 4.68023 8.27282 4.9814 7.86C5.28488 7.44846 5.83372 7.38308 6.20814 7.71513L11.4186 12.3459C12.0733 12.9177 12.9953 12.9177 13.6547 12.3408L18.8128 7.71769C19.1872 7.38051 19.736 7.44462 20.0407 7.85744Z" fill="#828282"/>
</svg>
