<svg width="64" height="18" viewBox="0 0 64 18" fill="none" xmlns="http://www.w3.org/2000/svg">
<path d="M4.016 2.96V7.16H9.656V9.824H4.016V14.264H10.376V17H0.656V0.223999H10.376V2.96H4.016ZM19.2854 0.248C21.0454 0.248 22.5894 0.592 23.9174 1.28C25.2614 1.968 26.2934 2.952 27.0134 4.232C27.7494 5.496 28.1174 6.968 28.1174 8.648C28.1174 10.328 27.7494 11.8 27.0134 13.064C26.2934 14.312 25.2614 15.28 23.9174 15.968C22.5894 16.656 21.0454 17 19.2854 17H13.4294V0.248H19.2854ZM19.1654 14.144C20.9254 14.144 22.2854 13.664 23.2454 12.704C24.2054 11.744 24.6854 10.392 24.6854 8.648C24.6854 6.904 24.2054 5.544 23.2454 4.568C22.2854 3.576 20.9254 3.08 19.1654 3.08H16.7894V14.144H19.1654ZM48.8966 0.248V17H45.5366V6.104L41.0486 17H38.5046L33.9926 6.104V17H30.6326V0.248H34.4486L39.7766 12.704L45.1046 0.248H48.8966ZM58.0025 17.168C56.8345 17.168 55.7785 16.968 54.8345 16.568C53.9065 16.168 53.1705 15.592 52.6265 14.84C52.0825 14.088 51.8025 13.2 51.7865 12.176H55.3865C55.4345 12.864 55.6745 13.408 56.1065 13.808C56.5545 14.208 57.1625 14.408 57.9305 14.408C58.7145 14.408 59.3305 14.224 59.7785 13.856C60.2265 13.472 60.4505 12.976 60.4505 12.368C60.4505 11.872 60.2985 11.464 59.9945 11.144C59.6905 10.824 59.3065 10.576 58.8425 10.4C58.3945 10.208 57.7705 10 56.9705 9.776C55.8825 9.456 54.9945 9.144 54.3065 8.84C53.6345 8.52 53.0505 8.048 52.5545 7.424C52.0745 6.784 51.8345 5.936 51.8345 4.88C51.8345 3.888 52.0825 3.024 52.5785 2.288C53.0745 1.552 53.7705 0.991999 54.6665 0.607999C55.5625 0.208 56.5865 0.0079999 57.7385 0.0079999C59.4665 0.0079999 60.8665 0.432 61.9385 1.28C63.0265 2.112 63.6265 3.28 63.7385 4.784H60.0425C60.0105 4.208 59.7625 3.736 59.2985 3.368C58.8505 2.984 58.2505 2.792 57.4985 2.792C56.8425 2.792 56.3145 2.96 55.9145 3.296C55.5305 3.632 55.3385 4.12 55.3385 4.76C55.3385 5.208 55.4825 5.584 55.7705 5.888C56.0745 6.176 56.4425 6.416 56.8745 6.608C57.3225 6.784 57.9465 6.992 58.7465 7.232C59.8345 7.552 60.7225 7.872 61.4105 8.192C62.0985 8.512 62.6905 8.992 63.1865 9.632C63.6825 10.272 63.9305 11.112 63.9305 12.152C63.9305 13.048 63.6985 13.88 63.2345 14.648C62.7705 15.416 62.0905 16.032 61.1945 16.496C60.2985 16.944 59.2345 17.168 58.0025 17.168Z" fill="#407BFF"/>
</svg>
