<svg width="20" height="21" viewBox="0 0 20 21" fill="none" xmlns="http://www.w3.org/2000/svg">
<path fill-rule="evenodd" clip-rule="evenodd" d="M14.7635 0.0839844C17.3042 0.0839844 19.3729 2.15169 19.3729 4.69336V16.2965C19.3729 18.8444 17.299 20.9173 14.7521 20.9173H9.66354C7.12292 20.9173 5.05521 18.8496 5.05521 16.3079V15.3267C5.05521 14.8954 5.40521 14.5454 5.83646 14.5454C6.26771 14.5454 6.61771 14.8954 6.61771 15.3267V16.3079C6.61771 17.9871 7.98437 19.3548 9.66354 19.3548H14.7521C16.4385 19.3548 17.8104 17.984 17.8104 16.2965V4.69336C17.8104 3.01419 16.4427 1.64648 14.7635 1.64648H9.675C7.98958 1.64648 6.61771 3.01732 6.61771 4.70273V5.67461C6.61771 6.10586 6.26771 6.45586 5.83646 6.45586C5.40521 6.45586 5.05521 6.10586 5.05521 5.67461V4.70273C5.05521 2.15586 7.12813 0.0839844 9.675 0.0839844H14.7635ZM10.9503 6.91003L14.0013 9.94831C14.026 9.97305 14.0491 9.99945 14.0704 10.0273L14.0014 9.94753C14.0429 9.98853 14.0793 10.0338 14.1102 10.0824C14.1165 10.0945 14.1236 10.1064 14.1304 10.1185C14.1423 10.1371 14.1524 10.1569 14.1615 10.1772C14.1667 10.1915 14.1727 10.2057 14.1783 10.2202C14.1872 10.24 14.1941 10.2604 14.2001 10.281C14.2036 10.2972 14.2078 10.3134 14.2114 10.3298C14.2171 10.3497 14.2208 10.3697 14.2237 10.3898C14.2237 10.399 14.2249 10.4086 14.2259 10.4182C14.2301 10.4457 14.2316 10.4731 14.2316 10.5007L14.224 10.5829L14.2231 10.6066C14.2228 10.6084 14.2226 10.6102 14.2223 10.6119L14.2316 10.5007C14.2316 10.5585 14.2252 10.6157 14.2127 10.6714C14.2078 10.6879 14.2036 10.7041 14.1989 10.7201C14.1941 10.741 14.1872 10.7613 14.1795 10.7813C14.1727 10.7956 14.1667 10.8098 14.1603 10.8239C14.1524 10.8444 14.1423 10.8642 14.1314 10.8835C14.1236 10.8949 14.1165 10.9068 14.1091 10.9185C14.0979 10.9383 14.0847 10.9572 14.0706 10.9755C14.061 10.9863 14.052 10.9973 14.0428 11.0081C14.0303 11.0241 14.0161 11.0392 14.0014 11.0538L10.9503 14.0902C10.7982 14.2423 10.5982 14.3184 10.3993 14.3184C10.1993 14.3184 9.99823 14.2423 9.84615 14.0882C9.54094 13.7819 9.54302 13.2882 9.84823 12.984L11.5573 11.2819H0.90625C0.475 11.2819 0.125 10.9319 0.125 10.5007C0.125 10.0694 0.475 9.7194 0.90625 9.7194H11.5573L9.84823 8.01628C9.54302 7.71211 9.54094 7.21836 9.84615 6.91211C10.1514 6.60586 10.6451 6.60586 10.9503 6.91003Z" fill="#828282"/>
</svg>
