<svg width="18" height="17" viewBox="0 0 18 17" fill="none" xmlns="http://www.w3.org/2000/svg">
<path fill-rule="evenodd" clip-rule="evenodd" d="M7.74323 14.2414C8.13173 14.6501 8.63048 14.8747 9.14798 14.8747H9.14873C9.66848 14.8747 10.1695 14.6501 10.5587 14.2407C10.7672 14.0233 11.1227 14.0055 11.353 14.2018C11.584 14.398 11.6027 14.7344 11.395 14.9519C10.789 15.5873 9.99173 15.9372 9.14873 15.9372H9.14723C8.30648 15.9365 7.51073 15.5865 6.90698 14.9512C6.69923 14.7337 6.71798 14.3973 6.94898 14.2018C7.17998 14.0048 7.53548 14.0226 7.74323 14.2414ZM9.18533 0.708008C12.5191 0.708008 14.7586 3.16026 14.7586 5.4503C14.7586 6.62826 15.0758 7.12763 15.4126 7.65747C15.7456 8.18022 16.1228 8.7738 16.1228 9.8958C15.8611 12.7624 12.6923 12.9962 9.18533 12.9962C5.67833 12.9962 2.50883 12.7624 2.25007 9.94113C2.24783 8.7738 2.62508 8.18022 2.95808 7.65747L3.07564 7.47058C3.36509 7.00074 3.61208 6.48968 3.61208 5.4503C3.61208 3.16026 5.85158 0.708008 9.18533 0.708008ZM9.18533 1.77051C6.56408 1.77051 4.73708 3.70992 4.73708 5.4503C4.73708 6.92292 4.30433 7.60363 3.92183 8.2043C3.61508 8.68668 3.37283 9.06776 3.37283 9.8958C3.49808 11.2317 4.43183 11.9337 9.18533 11.9337C13.9126 11.9337 14.8756 11.2006 15.0001 9.84976C14.9978 9.06776 14.7556 8.68668 14.4488 8.2043C14.0663 7.60363 13.6336 6.92292 13.6336 5.4503C13.6336 3.70992 11.8066 1.77051 9.18533 1.77051Z" fill="black"/>
<circle cx="15" cy="11" r="3" fill="#D70067"/>
</svg>
