<svg width="25" height="25" viewBox="0 0 25 25" fill="none" xmlns="http://www.w3.org/2000/svg">
    <g clip-path="url(#clip0_370_845)">
        <path d="M24.8986 23.844C24.9085 23.8232 24.9179 23.8023 24.9264 23.7808C24.931 23.7693 24.9349 23.7579 24.939 23.7463C24.9463 23.726 24.9531 23.7055 24.9592 23.6846C24.9629 23.6717 24.966 23.6587 24.9692 23.6457C24.974 23.6259 24.9786 23.6061 24.9823 23.5859C24.9849 23.5715 24.9868 23.5571 24.9888 23.5427C24.9915 23.5235 24.9941 23.5042 24.9957 23.4846C24.9969 23.4696 24.9974 23.4546 24.998 23.4395C24.9986 23.4255 25.0001 23.4118 25.0001 23.3977V10.8979C25.0001 10.7968 24.9851 10.6974 24.9569 10.6023C24.9568 10.602 24.9567 10.6017 24.9566 10.6013C24.9471 10.5695 24.9362 10.5382 24.9238 10.5075C24.9235 10.5067 24.9232 10.5059 24.9228 10.5051C24.9102 10.4741 24.8961 10.4437 24.8805 10.414L24.8804 10.4139C24.8245 10.3072 24.7501 10.2099 24.6591 10.1272L15.3427 1.65854C13.7309 0.193239 11.269 0.193239 9.65709 1.65859L0.341665 10.1272C0.330191 10.1376 0.319156 10.1483 0.308219 10.1592C0.307291 10.1601 0.306314 10.1609 0.305387 10.1618C0.304996 10.1622 0.304703 10.1626 0.304361 10.1629C0.281608 10.1858 0.260222 10.2097 0.239812 10.2343C0.237029 10.2377 0.23405 10.241 0.231316 10.2444C0.213397 10.2666 0.196698 10.2897 0.18078 10.3131C0.176386 10.3196 0.171845 10.326 0.167597 10.3325C0.153827 10.3538 0.141084 10.3757 0.128926 10.398C0.123945 10.407 0.118916 10.416 0.114229 10.4252C0.103536 10.4462 0.0937702 10.4676 0.0845419 10.4892C0.0800498 10.4998 0.0756065 10.5103 0.0714562 10.5209C0.0631556 10.5423 0.0555874 10.564 0.0487028 10.5859C0.0452849 10.5968 0.0421111 10.6077 0.039035 10.6186C0.0327852 10.6411 0.0272189 10.6637 0.0224826 10.6865C0.0203343 10.697 0.0184788 10.7074 0.0166722 10.7179C0.0125219 10.7414 0.00890872 10.7652 0.00641854 10.7891C0.00539317 10.7988 0.00485607 10.8084 0.00412367 10.8182C0.0025612 10.8385 0.00158466 10.8589 0.00119404 10.8794C0.00104756 10.8886 0.000608117 10.8978 0.000705771 10.9071V23.3683C0.000608117 23.3715 0.000754598 23.3747 0.000705771 23.3778V23.3976C0.000705771 23.4023 0.00134052 23.4068 0.00138935 23.4114C0.00173114 23.44 0.00300064 23.4684 0.00568613 23.4969C0.00636971 23.5042 0.00739508 23.5112 0.00822514 23.5184C0.0113012 23.5452 0.0152074 23.5718 0.0204319 23.5984C0.022092 23.6069 0.0240939 23.6152 0.0259494 23.6237C0.0313692 23.6482 0.0374726 23.6725 0.0447478 23.6968C0.0476774 23.7065 0.0509488 23.716 0.0541714 23.7256C0.0615443 23.7479 0.0694543 23.77 0.0784385 23.792C0.0828329 23.8026 0.0876668 23.8131 0.092403 23.8236C0.101534 23.844 0.110957 23.8642 0.121504 23.8841C0.127266 23.8949 0.133515 23.9054 0.139668 23.9161C0.147578 23.9298 0.154511 23.9439 0.163105 23.9574C0.166669 23.963 0.170868 23.968 0.174579 23.9735C0.180096 23.9818 0.186102 23.9897 0.191864 23.9979C0.206463 24.0187 0.221306 24.0391 0.237175 24.0584C0.239617 24.0614 0.242302 24.0642 0.244792 24.0672C0.352993 24.1964 0.487365 24.2942 0.635555 24.3569C0.639559 24.3586 0.643758 24.3599 0.647762 24.3616C0.674617 24.3725 0.701716 24.3828 0.729303 24.3914C0.736774 24.3937 0.744537 24.3955 0.752106 24.3976C0.777203 24.4049 0.802349 24.4117 0.827885 24.4171C0.835698 24.4187 0.843705 24.4197 0.851615 24.4212C0.877884 24.4261 0.904251 24.4304 0.930862 24.4333C0.937649 24.434 0.944582 24.4343 0.951418 24.4349C0.979689 24.4373 1.00796 24.439 1.03638 24.4392C1.03838 24.4392 1.04033 24.4394 1.04238 24.4394H23.9585C23.9605 24.4394 23.9623 24.4392 23.9643 24.4392C23.992 24.439 24.0195 24.4373 24.047 24.435C24.055 24.4343 24.063 24.434 24.0709 24.4331C24.0948 24.4305 24.1185 24.4266 24.1422 24.4223C24.153 24.4203 24.164 24.4189 24.1747 24.4166C24.1949 24.4123 24.2146 24.4067 24.2344 24.4013C24.2476 24.3977 24.2611 24.3946 24.2741 24.3905C24.2924 24.3847 24.3103 24.3775 24.3283 24.3706C24.3416 24.3656 24.3553 24.3611 24.3684 24.3555C24.3881 24.347 24.4072 24.3372 24.4264 24.3275C24.4369 24.3222 24.4477 24.3176 24.4579 24.312C24.4797 24.3 24.5007 24.2867 24.5217 24.2732C24.5286 24.2687 24.536 24.2647 24.5428 24.2601C24.5637 24.2459 24.5837 24.2303 24.6037 24.2145C24.6101 24.2095 24.6169 24.2048 24.6232 24.1996C24.6403 24.1854 24.6564 24.17 24.6727 24.1546C24.6814 24.1464 24.6904 24.1387 24.6988 24.1302C24.7112 24.1176 24.7227 24.1042 24.7345 24.0909C24.7461 24.0779 24.7578 24.0652 24.7687 24.0518C24.777 24.0414 24.7847 24.0304 24.7927 24.0196C24.806 24.0019 24.8191 23.9839 24.8312 23.9653C24.833 23.9626 24.8351 23.9601 24.8369 23.9573C24.8411 23.9506 24.8444 23.9437 24.8485 23.9369C24.861 23.9164 24.873 23.8957 24.884 23.8743C24.8892 23.8643 24.8938 23.8541 24.8986 23.844ZM2.08401 13.4135L7.02614 18.3556L2.08401 21.5003V13.4135ZM9.96138 18.9572C11.5099 17.9712 13.4902 17.9712 15.0384 18.957L20.3801 22.356H4.61994L9.96138 18.9572ZM17.9739 18.3556L22.9169 13.4126V21.5008L17.9739 18.3556ZM11.0585 3.20006C11.8757 2.45711 13.1242 2.45711 13.9414 3.20006L22.4495 10.9338L16.1734 17.2099L16.1571 17.1995C13.9265 15.7793 11.0736 15.7793 8.84275 17.1997L8.82669 17.2099L2.55094 10.9341L11.0585 3.20006Z"
              fill="#828282"/>
        <path d="M8.6384 10.5935C9.04518 11.0003 9.70473 11.0003 10.1115 10.5935L11.4583 9.24673V14.0235C11.4583 14.5988 11.9246 15.0651 12.4999 15.0651C13.0752 15.0651 13.5415 14.5988 13.5415 14.0235V9.24673L14.8883 10.5935C15.295 11.0003 15.9546 11.0003 16.3614 10.5935C16.7682 10.1867 16.7682 9.52714 16.3614 9.12036L13.2364 5.99543C13.2362 5.99523 13.2361 5.99513 13.2359 5.99494C13.2118 5.97087 13.1865 5.94807 13.1601 5.92644C13.1481 5.91652 13.1354 5.90793 13.123 5.89865C13.1082 5.88757 13.0937 5.87609 13.0783 5.86579C13.0634 5.85588 13.0481 5.84729 13.0329 5.8382C13.0189 5.82986 13.0053 5.82112 12.9909 5.8134C12.9754 5.8051 12.9595 5.79812 12.9437 5.79065C12.9286 5.78357 12.9139 5.77605 12.8985 5.76965C12.8832 5.7633 12.8675 5.75818 12.852 5.75261C12.8355 5.74665 12.8192 5.74036 12.8023 5.73523C12.7867 5.73054 12.7709 5.72707 12.7552 5.72312C12.738 5.71877 12.721 5.71394 12.7034 5.71047C12.6852 5.70686 12.6669 5.70476 12.6486 5.70212C12.6333 5.69993 12.6182 5.697 12.6027 5.69548C12.5343 5.68875 12.4655 5.68875 12.3971 5.69548C12.3816 5.697 12.3665 5.69993 12.3512 5.70212C12.3328 5.70476 12.3145 5.70686 12.2964 5.71047C12.2788 5.71394 12.2618 5.71877 12.2446 5.72312C12.2288 5.72707 12.2131 5.73054 12.1975 5.73523C12.1806 5.74036 12.1643 5.74665 12.1478 5.75261C12.1323 5.75818 12.1166 5.7633 12.1013 5.76965C12.0859 5.77605 12.0711 5.78352 12.0561 5.79065C12.0403 5.79812 12.0244 5.8051 12.0089 5.8134C11.9945 5.82112 11.9809 5.82986 11.9669 5.8382C11.9517 5.84729 11.9363 5.85588 11.9215 5.86579C11.9061 5.87609 11.8916 5.88757 11.8768 5.89865C11.8644 5.90793 11.8517 5.91652 11.8396 5.92644C11.8133 5.94807 11.7879 5.97087 11.7639 5.99494C11.7637 5.99513 11.7635 5.99523 11.7633 5.99543L8.6384 9.12036C8.23162 9.52719 8.23162 10.1867 8.6384 10.5935Z"
              fill="#828282"/>
    </g>
    <defs>
        <clipPath id="clip0_370_845">
            <rect width="25" height="25" fill="white"/>
        </clipPath>
    </defs>
</svg>
